<?xml version="1.0" encoding="UTF-8" standalone="no"?>
<!-- Generator: Adobe Illustrator 16.0.4, SVG Export Plug-In . SVG Version: 6.00 Build 0)  -->

<svg
   xmlns:dc="http://purl.org/dc/elements/1.1/"
   xmlns:cc="http://creativecommons.org/ns#"
   xmlns:rdf="http://www.w3.org/1999/02/22-rdf-syntax-ns#"
   xmlns:svg="http://www.w3.org/2000/svg"
   xmlns="http://www.w3.org/2000/svg"
   xmlns:sodipodi="http://sodipodi.sourceforge.net/DTD/sodipodi-0.dtd"
   xmlns:inkscape="http://www.inkscape.org/namespaces/inkscape"
   version="1.1"
   id="Layer_1"
   x="0px"
   y="0px"
   width="226.77px"
   height="155.91px"
   viewBox="0 0 226.77 155.91"
   enable-background="new 0 0 226.77 155.91"
   xml:space="preserve"
   inkscape:version="0.91 r13725"
   sodipodi:docname="different_white.svg"><metadata
     id="metadata11"><rdf:RDF><cc:Work
         rdf:about=""><dc:format>image/svg+xml</dc:format><dc:type
           rdf:resource="http://purl.org/dc/dcmitype/StillImage" /></cc:Work></rdf:RDF></metadata><defs
     id="defs9" /><sodipodi:namedview
     pagecolor="#ffffff"
     bordercolor="#666666"
     borderopacity="1"
     objecttolerance="10"
     gridtolerance="10"
     guidetolerance="10"
     inkscape:pageopacity="0"
     inkscape:pageshadow="2"
     inkscape:window-width="640"
     inkscape:window-height="480"
     id="namedview7"
     showgrid="false"
     inkscape:zoom="1.5136938"
     inkscape:cx="113.385"
     inkscape:cy="77.955002"
     inkscape:window-x="226"
     inkscape:window-y="112"
     inkscape:window-maximized="0"
     inkscape:current-layer="Layer_1" /><g
     id="g3"
     style="fill:#ffffff"><path
       d="M59.791,92.571c-4.037,0-7.308,3.271-7.308,7.309c0,4.036,3.271,7.309,7.308,7.309h18.897l-3.496,3.495   c-2.855,2.854-2.855,7.481,0,10.337c1.428,1.427,3.299,2.141,5.167,2.141c1.869,0,3.74-0.714,5.167-2.139l13.833-13.834h67.621   c4.037,0,7.309-3.272,7.309-7.309c0-4.037-3.271-7.309-7.309-7.309h-53.002l19.488-19.489h33.514c4.037,0,7.309-3.272,7.309-7.308   c0-4.037-3.271-7.309-7.309-7.309h-18.896l13.24-13.24c2.855-2.855,2.855-7.481,0-10.336c-2.855-2.855-7.479-2.853-10.334,0   l-23.576,23.577H59.791c-4.037,0-7.308,3.271-7.308,7.309c0,4.036,3.271,7.308,7.308,7.308h53.002L93.304,92.571H59.791z"
       id="path5"
       style="fill:#ffffff" /></g></svg>