<?xml version="1.0" encoding="utf-8"?>
<!-- Generator: Adobe Illustrator 16.0.4, SVG Export Plug-In . SVG Version: 6.00 Build 0)  -->
<!DOCTYPE svg PUBLIC "-//W3C//DTD SVG 1.1//EN" "http://www.w3.org/Graphics/SVG/1.1/DTD/svg11.dtd">
<svg version="1.1" id="Layer_1" xmlns="http://www.w3.org/2000/svg" xmlns:xlink="http://www.w3.org/1999/xlink" x="0px" y="0px"
	 width="226.77px" height="155.91px" viewBox="0 0 226.77 155.91" enable-background="new 0 0 226.77 155.91" xml:space="preserve">
<g>
	<path d="M59.791,92.571c-4.037,0-7.308,3.271-7.308,7.309c0,4.036,3.271,7.309,7.308,7.309h18.897l-3.496,3.495
		c-2.855,2.854-2.855,7.481,0,10.337c1.428,1.427,3.299,2.141,5.167,2.141c1.869,0,3.74-0.714,5.167-2.139l13.833-13.834h67.621
		c4.037,0,7.309-3.272,7.309-7.309c0-4.037-3.271-7.309-7.309-7.309h-53.002l19.488-19.489h33.514c4.037,0,7.309-3.272,7.309-7.308
		c0-4.037-3.271-7.309-7.309-7.309h-18.896l13.24-13.24c2.855-2.855,2.855-7.481,0-10.336c-2.855-2.855-7.479-2.853-10.334,0
		l-23.576,23.577H59.791c-4.037,0-7.308,3.271-7.308,7.309c0,4.036,3.271,7.308,7.308,7.308h53.002L93.304,92.571H59.791z"/>
</g>
</svg>
