<?xml version="1.0" encoding="UTF-8" standalone="no"?>
<!-- Generator: Adobe Illustrator 16.0.4, SVG Export Plug-In . SVG Version: 6.00 Build 0)  -->

<svg
   xmlns:dc="http://purl.org/dc/elements/1.1/"
   xmlns:cc="http://creativecommons.org/ns#"
   xmlns:rdf="http://www.w3.org/1999/02/22-rdf-syntax-ns#"
   xmlns:svg="http://www.w3.org/2000/svg"
   xmlns="http://www.w3.org/2000/svg"
   xmlns:sodipodi="http://sodipodi.sourceforge.net/DTD/sodipodi-0.dtd"
   xmlns:inkscape="http://www.inkscape.org/namespaces/inkscape"
   version="1.1"
   id="Layer_1"
   x="0px"
   y="0px"
   width="150"
   height="150"
   viewBox="0 0 150 150"
   enable-background="new 0 0 226.77 155.91"
   xml:space="preserve"
   inkscape:version="0.91 r13725"
   sodipodi:docname="different-symbolic.svg"><metadata
     id="metadata11"><rdf:RDF><cc:Work
         rdf:about=""><dc:format>image/svg+xml</dc:format><dc:type
           rdf:resource="http://purl.org/dc/dcmitype/StillImage" /><dc:title></dc:title></cc:Work></rdf:RDF></metadata><defs
     id="defs9" /><sodipodi:namedview
     pagecolor="#ffffff"
     bordercolor="#666666"
     borderopacity="1"
     objecttolerance="10"
     gridtolerance="10"
     guidetolerance="10"
     inkscape:pageopacity="0"
     inkscape:pageshadow="2"
     inkscape:window-width="1366"
     inkscape:window-height="704"
     id="namedview7"
     showgrid="false"
     inkscape:zoom="1.5136938"
     inkscape:cx="48.607911"
     inkscape:cy="45.207"
     inkscape:window-x="0"
     inkscape:window-y="27"
     inkscape:window-maximized="1"
     inkscape:current-layer="Layer_1" /><path
     inkscape:connector-curvature="0"
     id="path5"
     d="m 21.405,89.615751 c -4.037,0 -7.308,3.271 -7.308,7.309 0,4.035999 3.271,7.308999 7.308,7.308999 l 18.897,0 -3.496,3.495 c -2.855,2.854 -2.855,7.481 0,10.337 1.428,1.427 3.299,2.141 5.167,2.141 1.869,0 3.74,-0.714 5.167,-2.139 l 13.833,-13.834 67.621,0 c 4.037,0 7.309,-3.272 7.309,-7.308999 0,-4.037 -3.271,-7.309 -7.309,-7.309 l -53.002,0 19.488,-19.489002 33.514,0 c 4.037,0 7.309,-3.272 7.309,-7.308 0,-4.037 -3.271,-7.309 -7.309,-7.309 l -18.896,0 13.24,-13.24 c 2.855,-2.855 2.855,-7.481 0,-10.336 -2.855,-2.855 -7.479,-2.853 -10.334,0 l -23.576,23.577 -67.623,0 c -4.037,0 -7.308,3.271 -7.308,7.309 0,4.036 3.271,7.308 7.308,7.308 l 53.002,0 -19.489,19.488002 -33.513,0 z"
     style="fill:#bebebe;fill-opacity:1;stroke:none" /></svg>