<?xml version="1.0" encoding="UTF-8" standalone="no"?>
<!-- Generator: Adobe Illustrator 16.0.4, SVG Export Plug-In . SVG Version: 6.00 Build 0)  -->

<svg
   xmlns:dc="http://purl.org/dc/elements/1.1/"
   xmlns:cc="http://creativecommons.org/ns#"
   xmlns:rdf="http://www.w3.org/1999/02/22-rdf-syntax-ns#"
   xmlns:svg="http://www.w3.org/2000/svg"
   xmlns="http://www.w3.org/2000/svg"
   xmlns:sodipodi="http://sodipodi.sourceforge.net/DTD/sodipodi-0.dtd"
   xmlns:inkscape="http://www.inkscape.org/namespaces/inkscape"
   version="1.1"
   id="Layer_1"
   x="0px"
   y="0px"
   width="226.77px"
   height="155.91px"
   viewBox="0 0 226.77 155.91"
   enable-background="new 0 0 226.77 155.91"
   xml:space="preserve"
   inkscape:version="0.91 r13725"
   sodipodi:docname="inf_or_eq_white.svg"><metadata
     id="metadata13"><rdf:RDF><cc:Work
         rdf:about=""><dc:format>image/svg+xml</dc:format><dc:type
           rdf:resource="http://purl.org/dc/dcmitype/StillImage" /></cc:Work></rdf:RDF></metadata><defs
     id="defs11" /><sodipodi:namedview
     pagecolor="#ffffff"
     bordercolor="#666666"
     borderopacity="1"
     objecttolerance="10"
     gridtolerance="10"
     guidetolerance="10"
     inkscape:pageopacity="0"
     inkscape:pageshadow="2"
     inkscape:window-width="1366"
     inkscape:window-height="704"
     id="namedview9"
     showgrid="false"
     inkscape:zoom="1.5136938"
     inkscape:cx="217.10479"
     inkscape:cy="77.955002"
     inkscape:window-x="0"
     inkscape:window-y="27"
     inkscape:window-maximized="1"
     inkscape:current-layer="Layer_1" /><g
     id="g3"
     style="fill:#ffffff"><path
       d="M64.663,138.859h97.443c4.037,0,7.309-3.271,7.309-7.309c0-4.036-3.271-7.309-7.309-7.309H64.663   c-4.037,0-7.309,3.272-7.309,7.309C57.354,135.588,60.626,138.859,64.663,138.859z"
       id="path5"
       style="fill:#ffffff" /><path
       d="M161.622,21.746c-1.444-3.766-5.661-5.657-9.44-4.207L63.265,51.644c-2.753,1.055-4.604,3.662-4.689,6.609   c-0.085,2.948,1.607,5.657,4.297,6.872l88.918,40.197c0.974,0.44,1.997,0.65,3.003,0.65c2.785,0,5.443-1.599,6.663-4.301   c1.664-3.678,0.029-8.007-3.649-9.671L84.846,59.018l72.568-27.834C161.184,29.741,163.068,25.515,161.622,21.746z"
       id="path7"
       style="fill:#ffffff" /></g></svg>