<?xml version="1.0" encoding="UTF-8" standalone="no"?>
<!-- Generator: Adobe Illustrator 16.0.4, SVG Export Plug-In . SVG Version: 6.00 Build 0)  -->

<svg
   xmlns:dc="http://purl.org/dc/elements/1.1/"
   xmlns:cc="http://creativecommons.org/ns#"
   xmlns:rdf="http://www.w3.org/1999/02/22-rdf-syntax-ns#"
   xmlns:svg="http://www.w3.org/2000/svg"
   xmlns="http://www.w3.org/2000/svg"
   xmlns:sodipodi="http://sodipodi.sourceforge.net/DTD/sodipodi-0.dtd"
   xmlns:inkscape="http://www.inkscape.org/namespaces/inkscape"
   version="1.1"
   id="Layer_1"
   x="0px"
   y="0px"
   width="150"
   height="150"
   viewBox="0 0 150 150"
   enable-background="new 0 0 226.77 155.91"
   xml:space="preserve"
   inkscape:version="0.91 r13725"
   sodipodi:docname="inf_or_eq-symbolic.svg"><metadata
     id="metadata13"><rdf:RDF><cc:Work
         rdf:about=""><dc:format>image/svg+xml</dc:format><dc:type
           rdf:resource="http://purl.org/dc/dcmitype/StillImage" /><dc:title></dc:title></cc:Work></rdf:RDF></metadata><defs
     id="defs11" /><sodipodi:namedview
     pagecolor="#ffffff"
     bordercolor="#666666"
     borderopacity="1"
     objecttolerance="10"
     gridtolerance="10"
     guidetolerance="10"
     inkscape:pageopacity="0"
     inkscape:pageshadow="2"
     inkscape:window-width="1366"
     inkscape:window-height="704"
     id="namedview9"
     showgrid="false"
     inkscape:zoom="1.5136938"
     inkscape:cx="113.385"
     inkscape:cy="77.955002"
     inkscape:window-x="0"
     inkscape:window-y="27"
     inkscape:window-maximized="1"
     inkscape:current-layer="Layer_1" /><g
     id="g4143"
     transform="translate(-38.3845,2.9550729)"><path
       style="fill:#bebebe;fill-opacity:1;stroke:none"
       d="m 64.663,132.949 97.443,0 c 4.037,0 7.309,-3.271 7.309,-7.309 0,-4.036 -3.271,-7.309 -7.309,-7.309 l -97.443,0 c -4.037,0 -7.309,3.272 -7.309,7.309 0,4.038 3.272,7.309 7.309,7.309 z"
       id="path5"
       inkscape:connector-curvature="0" /><path
       style="fill:#bebebe;fill-opacity:1;stroke:none"
       d="m 161.622,15.835996 c -1.444,-3.766 -5.661,-5.657 -9.44,-4.207 l -88.917,34.105 c -2.753,1.055 -4.604,3.662 -4.689,6.609 -0.085,2.948 1.607,5.657 4.297,6.872 l 88.918,40.197 c 0.974,0.44 1.997,0.650004 3.003,0.650004 2.785,0 5.443,-1.599004 6.663,-4.301004 1.664,-3.678 0.029,-8.007 -3.649,-9.671 l -72.962,-32.982 72.568,-27.834 c 3.77,-1.443 5.654,-5.669 4.208,-9.438 z"
       id="path7"
       inkscape:connector-curvature="0" /></g></svg>