<?xml version="1.0" encoding="utf-8"?>
<!-- Generator: Adobe Illustrator 16.0.4, SVG Export Plug-In . SVG Version: 6.00 Build 0)  -->
<!DOCTYPE svg PUBLIC "-//W3C//DTD SVG 1.1//EN" "http://www.w3.org/Graphics/SVG/1.1/DTD/svg11.dtd">
<svg version="1.1" id="Layer_1" xmlns="http://www.w3.org/2000/svg" xmlns:xlink="http://www.w3.org/1999/xlink" x="0px" y="0px"
	 width="226.77px" height="155.91px" viewBox="0 0 226.77 155.91" enable-background="new 0 0 226.77 155.91" xml:space="preserve">
<g>
	<path d="M64.663,138.859h97.443c4.037,0,7.309-3.271,7.309-7.309c0-4.036-3.271-7.309-7.309-7.309H64.663
		c-4.037,0-7.309,3.272-7.309,7.309C57.354,135.588,60.626,138.859,64.663,138.859z"/>
	<path d="M161.622,21.746c-1.444-3.766-5.661-5.657-9.44-4.207L63.265,51.644c-2.753,1.055-4.604,3.662-4.689,6.609
		c-0.085,2.948,1.607,5.657,4.297,6.872l88.918,40.197c0.974,0.44,1.997,0.65,3.003,0.65c2.785,0,5.443-1.599,6.663-4.301
		c1.664-3.678,0.029-8.007-3.649-9.671L84.846,59.018l72.568-27.834C161.184,29.741,163.068,25.515,161.622,21.746z"/>
</g>
</svg>
