<?xml version="1.0" encoding="utf-8"?>
<!-- Generator: Adobe Illustrator 16.0.4, SVG Export Plug-In . SVG Version: 6.00 Build 0)  -->
<!DOCTYPE svg PUBLIC "-//W3C//DTD SVG 1.1//EN" "http://www.w3.org/Graphics/SVG/1.1/DTD/svg11.dtd">
<svg version="1.1" id="Layer_1" xmlns="http://www.w3.org/2000/svg" xmlns:xlink="http://www.w3.org/1999/xlink" x="0px" y="0px"
	 width="226.77px" height="155.91px" viewBox="0 0 226.77 155.91" enable-background="new 0 0 226.77 155.91" xml:space="preserve">
<g>
	<path d="M57.354,131.549c0,4.037,3.272,7.309,7.309,7.309h97.443c4.037,0,7.309-3.271,7.309-7.309c0-4.036-3.271-7.308-7.309-7.308
		H64.663C60.626,124.241,57.354,127.513,57.354,131.549z"/>
	<path d="M65.311,101.673c1.22,2.701,3.88,4.3,6.665,4.3c1.006,0,2.029-0.21,3.006-0.65l88.917-40.196
		c2.688-1.216,4.38-3.924,4.295-6.872s-1.935-5.554-4.687-6.609L74.59,17.54c-3.759-1.444-7.995,0.436-9.44,4.208
		c-1.447,3.769,0.438,7.995,4.208,9.44l72.568,27.834L68.96,92.001C65.282,93.665,63.649,97.994,65.311,101.673z"/>
</g>
</svg>
