<?xml version="1.0" encoding="UTF-8" standalone="no"?>
<!-- Generator: Adobe Illustrator 16.0.4, SVG Export Plug-In . SVG Version: 6.00 Build 0)  -->

<svg
   xmlns:dc="http://purl.org/dc/elements/1.1/"
   xmlns:cc="http://creativecommons.org/ns#"
   xmlns:rdf="http://www.w3.org/1999/02/22-rdf-syntax-ns#"
   xmlns:svg="http://www.w3.org/2000/svg"
   xmlns="http://www.w3.org/2000/svg"
   xmlns:sodipodi="http://sodipodi.sourceforge.net/DTD/sodipodi-0.dtd"
   xmlns:inkscape="http://www.inkscape.org/namespaces/inkscape"
   version="1.1"
   id="Layer_1"
   x="0px"
   y="0px"
   width="150"
   height="150"
   viewBox="0 0 150 150"
   enable-background="new 0 0 226.77 155.91"
   xml:space="preserve"
   inkscape:version="0.91 r13725"
   sodipodi:docname="sup_or_eq-symbolic.svg"><metadata
     id="metadata13"><rdf:RDF><cc:Work
         rdf:about=""><dc:format>image/svg+xml</dc:format><dc:type
           rdf:resource="http://purl.org/dc/dcmitype/StillImage" /><dc:title></dc:title></cc:Work></rdf:RDF></metadata><defs
     id="defs11" /><sodipodi:namedview
     pagecolor="#ffffff"
     bordercolor="#666666"
     borderopacity="1"
     objecttolerance="10"
     gridtolerance="10"
     guidetolerance="10"
     inkscape:pageopacity="0"
     inkscape:pageshadow="2"
     inkscape:window-width="1366"
     inkscape:window-height="704"
     id="namedview9"
     showgrid="false"
     inkscape:zoom="1.5136938"
     inkscape:cx="113.385"
     inkscape:cy="77.955002"
     inkscape:window-x="0"
     inkscape:window-y="27"
     inkscape:window-maximized="1"
     inkscape:current-layer="Layer_1" /><g
     id="g3"
     style="fill:#bebebe;fill-opacity:1;stroke:none"
     transform="translate(-38.3845,-2.955857)"><path
       d="m 57.354,131.549 c 0,4.037 3.272,7.309 7.309,7.309 l 97.443,0 c 4.037,0 7.309,-3.271 7.309,-7.309 0,-4.036 -3.271,-7.308 -7.309,-7.308 l -97.443,0 c -4.037,0 -7.309,3.272 -7.309,7.308 z"
       id="path5"
       style="fill:#bebebe;fill-opacity:1;stroke:none"
       inkscape:connector-curvature="0" /><path
       d="m 65.311,101.673 c 1.22,2.701 3.88,4.3 6.665,4.3 1.006,0 2.029,-0.21 3.006,-0.65 l 88.917,-40.196 c 2.688,-1.216 4.38,-3.924 4.295,-6.872 -0.085,-2.948 -1.935,-5.554 -4.687,-6.609 L 74.59,17.54 c -3.759,-1.444 -7.995,0.436 -9.44,4.208 -1.447,3.769 0.438,7.995 4.208,9.44 L 141.926,59.022 68.96,92.001 c -3.678,1.664 -5.311,5.993 -3.649,9.672 z"
       id="path7"
       style="fill:#bebebe;fill-opacity:1;stroke:none"
       inkscape:connector-curvature="0" /></g></svg>