<?xml version="1.0" encoding="UTF-8" standalone="no"?>
<!-- Created with Inkscape (http://www.inkscape.org/) -->

<svg
   xmlns:dc="http://purl.org/dc/elements/1.1/"
   xmlns:cc="http://creativecommons.org/ns#"
   xmlns:rdf="http://www.w3.org/1999/02/22-rdf-syntax-ns#"
   xmlns:svg="http://www.w3.org/2000/svg"
   xmlns="http://www.w3.org/2000/svg"
   xmlns:sodipodi="http://sodipodi.sourceforge.net/DTD/sodipodi-0.dtd"
   xmlns:inkscape="http://www.inkscape.org/namespaces/inkscape"
   width="800"
   height="800"
   viewBox="0 0 800.00001 800.00001"
   id="svg4134"
   version="1.1"
   inkscape:version="0.91 r13725"
   sodipodi:docname="icon_flip_card-symbolic.svg">
  <defs
     id="defs4136" />
  <sodipodi:namedview
     id="base"
     pagecolor="#ffffff"
     bordercolor="#666666"
     borderopacity="1.0"
     inkscape:pageopacity="0.0"
     inkscape:pageshadow="2"
     inkscape:zoom="0.49497475"
     inkscape:cx="280.25239"
     inkscape:cy="370.3824"
     inkscape:document-units="px"
     inkscape:current-layer="layer1"
     showgrid="false"
     units="px"
     inkscape:window-width="1366"
     inkscape:window-height="704"
     inkscape:window-x="0"
     inkscape:window-y="27"
     inkscape:window-maximized="1" />
  <metadata
     id="metadata4139">
    <rdf:RDF>
      <cc:Work
         rdf:about="">
        <dc:format>image/svg+xml</dc:format>
        <dc:type
           rdf:resource="http://purl.org/dc/dcmitype/StillImage" />
        <dc:title></dc:title>
      </cc:Work>
    </rdf:RDF>
  </metadata>
  <g
     inkscape:label="Calque 1"
     inkscape:groupmode="layer"
     id="layer1"
     transform="translate(0,-252.36216)">
    <path
       style="fill:#bebebe;fill-opacity:1;stroke:none;stroke-width:10;stroke-miterlimit:4;stroke-dasharray:none;stroke-opacity:1"
       d="M 329.96484 8.4257812 C 305.71521 8.155658 282.87451 22.845455 273.78906 46.916016 L 71.605469 582.57031 C 59.976098 613.38063 75.418198 647.54641 106.22852 659.17578 L 446.74805 787.70508 C 477.55836 799.33445 511.72414 783.8943 523.35352 753.08398 L 725.53711 217.42969 C 737.16648 186.61937 721.72438 152.45359 690.91406 140.82422 L 350.39453 12.294922 C 343.65477 9.750997 336.75474 8.5014158 329.96484 8.4257812 z M 398.57227 219.9082 C 421.39633 219.9082 443.59455 224.24757 465.16797 232.92383 C 486.7414 241.60015 505.89192 253.83187 522.61914 269.62109 L 553.10352 239.37109 C 556.07377 236.40087 559.58973 234.91602 563.6543 234.91602 C 567.71885 234.91602 571.23677 236.40087 574.20703 239.37109 C 577.17728 242.34133 578.66211 245.85925 578.66211 249.92383 L 578.66211 354.97656 C 578.66211 359.04114 577.17728 362.55906 574.20703 365.5293 C 571.23677 368.49953 567.71885 369.98437 563.6543 369.98438 L 458.60156 369.98438 C 454.537 369.98438 451.01908 368.49953 448.04883 365.5293 C 445.07857 362.55906 443.59375 359.04114 443.59375 354.97656 C 443.59375 350.91198 445.07857 347.39601 448.04883 344.42578 L 480.41016 312.06445 C 457.27344 290.64729 429.99443 279.93945 398.57227 279.93945 C 377.62416 279.93945 358.08145 285.02023 339.94727 295.18164 C 321.81308 305.34305 307.27507 319.33471 296.33203 337.15625 C 294.6124 339.81382 290.47012 348.95887 283.9043 364.5918 C 282.65366 368.18735 280.30837 369.98438 276.86914 369.98438 L 230.20508 369.98438 C 228.1728 369.98438 226.41482 369.24289 224.92969 367.75781 C 223.44457 366.27266 222.70117 364.51272 222.70117 362.48047 L 222.70117 360.83984 C 232.86257 318.94363 253.96619 284.97995 286.01367 258.95117 C 318.06117 232.92233 355.58175 219.9082 398.57227 219.9082 z M 233.48828 430.01562 L 338.54102 430.01562 C 342.60558 430.01562 346.1235 431.50047 349.09375 434.4707 C 352.064 437.44094 353.54883 440.95886 353.54883 445.02344 C 353.54883 449.08802 352.064 452.60399 349.09375 455.57422 L 316.9668 487.70117 C 328.06618 498.01888 340.65108 505.99127 354.7207 511.61914 C 368.79033 517.24695 383.40833 520.06055 398.57227 520.06055 C 419.52038 520.06055 439.06113 514.97969 457.19531 504.81836 C 475.3295 494.65695 489.86751 480.66529 500.81055 462.84375 C 502.53017 460.18618 506.67245 451.04113 513.23828 435.4082 C 514.48892 431.81265 516.8342 430.01562 520.27344 430.01562 L 565.29688 430.01562 C 567.32916 430.01562 569.08715 430.75711 570.57227 432.24219 C 572.05739 433.72734 572.80078 435.4872 572.80078 437.51953 C 572.80078 438.30114 572.72273 438.8475 572.56641 439.16016 C 562.56133 481.05637 541.61186 515.01998 509.7207 541.04883 C 477.82956 567.0776 440.46701 580.0918 397.63281 580.0918 C 374.80875 580.0918 352.72761 575.79147 331.38867 567.19336 C 310.04974 558.59525 291.01628 546.32449 274.28906 530.37891 L 244.03906 560.62891 C 241.06881 563.59921 237.55284 565.08398 233.48828 565.08398 C 229.42372 565.08398 225.9058 563.59921 222.93555 560.62891 C 219.96529 557.65868 218.48047 554.14075 218.48047 550.07617 L 218.48047 445.02344 C 218.48047 440.95886 219.96529 437.44094 222.93555 434.4707 C 225.9058 431.50047 229.42372 430.01562 233.48828 430.01562 z "
       transform="translate(0,252.36216)"
       id="rect4682" />
  </g>
</svg>
