<?xml version="1.0" encoding="UTF-8" standalone="no"?>
<!-- Created with Inkscape (http://www.inkscape.org/) -->

<svg
   xmlns:dc="http://purl.org/dc/elements/1.1/"
   xmlns:cc="http://creativecommons.org/ns#"
   xmlns:rdf="http://www.w3.org/1999/02/22-rdf-syntax-ns#"
   xmlns:svg="http://www.w3.org/2000/svg"
   xmlns="http://www.w3.org/2000/svg"
   xmlns:sodipodi="http://sodipodi.sourceforge.net/DTD/sodipodi-0.dtd"
   xmlns:inkscape="http://www.inkscape.org/namespaces/inkscape"
   version="1.1"
   width="600"
   height="1097.561"
   id="svg3422"
   inkscape:version="0.91 r13725"
   sodipodi:docname="power.svg">
  <sodipodi:namedview
     pagecolor="#ffffff"
     bordercolor="#666666"
     borderopacity="1"
     objecttolerance="10"
     gridtolerance="10"
     guidetolerance="10"
     inkscape:pageopacity="0"
     inkscape:pageshadow="2"
     inkscape:window-width="1366"
     inkscape:window-height="704"
     id="namedview21"
     showgrid="false"
     inkscape:zoom="0.21502221"
     inkscape:cx="-195.29767"
     inkscape:cy="539.47915"
     inkscape:window-x="0"
     inkscape:window-y="27"
     inkscape:window-maximized="1"
     inkscape:current-layer="svg3422" />
  <defs
     id="defs3424">
    <clipPath
       id="clipPath3672">
      <path
         d="M 0,300 164,300 164,0 0,0 0,300 z"
         inkscape:connector-curvature="0"
         id="path3674" />
    </clipPath>
    <clipPath
       id="clipPath3688">
      <path
         d="M 0,300 164,300 164,0 0,0 0,300 z"
         inkscape:connector-curvature="0"
         id="path3690" />
    </clipPath>
  </defs>
  <metadata
     id="metadata3427">
    <rdf:RDF>
      <cc:Work
         rdf:about="">
        <dc:format>image/svg+xml</dc:format>
        <dc:type
           rdf:resource="http://purl.org/dc/dcmitype/StillImage" />
        <dc:title />
      </cc:Work>
    </rdf:RDF>
  </metadata>
  <g
     transform="translate(-197.5,349.12737)"
     id="layer1"
     style="stroke:none;fill:#bebebe;fill-opacity:1">
    <g
       transform="matrix(3.6585366,0,0,-3.6585366,197.5,748.43361)"
       id="g3666"
       style="stroke:none;fill:#bebebe;fill-opacity:1">
      <g
         id="g3668"
         style="stroke:none;fill:#bebebe;fill-opacity:1">
        <g
           clip-path="url(#clipPath3672)"
           id="g3670"
           style="stroke:none;fill:#bebebe;fill-opacity:1">
          <g
             transform="translate(-109.1709,0)"
             id="g3676"
             style="stroke:none;fill:#bebebe;fill-opacity:1">
            <path
               d="m 0,0 c 0,0 115.146,80.629 78.454,254.6 0,0 -55.216,-4.719 -78.092,45.4 C -22.526,249.881 -78.093,254.6 -78.093,254.6 -114.784,80.629 0,0 0,0"
               inkscape:connector-curvature="0"
               id="path3678"
               style="fill:#bebebe;fill-opacity:1;fill-rule:nonzero;stroke:none" />
          </g>
          <g
             transform="translate(351.8594,254.7983)"
             id="g3680"
             style="stroke:none;fill:#bebebe;fill-opacity:1">
            <path
               d="M 0,0 C 0,0 -55.255,-4.797 -78.083,45.202 -101.31,-4.797 -156.578,0 -156.578,0 c -36.835,-174.401 78.096,-254.798 78.096,-254.798 0,0 114.933,80.397 78.482,254.798 m -15.213,-19.993 c 29.632,-140.8 -63.269,-206.011 -63.269,-206.011 0,0 -92.911,65.211 -63.28,206.011 0,0 44.862,-4.007 63.28,36.392 18.817,-40.399 63.269,-36.392 63.269,-36.392 M -57.66,-41.6 l 0,14.799 -20.822,16.402 -20.822,-16.402 0,-14.799 41.644,0 z m 23.23,-14.002 -88.102,0 c -20.425,-97.599 44.05,-142.796 44.05,-142.796 0,0 64.475,45.197 44.052,142.796"
               inkscape:connector-curvature="0"
               id="path3682"
               style="fill:#bebebe;fill-opacity:1;fill-rule:nonzero;stroke:none" />
          </g>
        </g>
      </g>
      <g
         id="g3684"
         style="stroke:none;fill:#bebebe;fill-opacity:1">
        <g
           clip-path="url(#clipPath3688)"
           id="g3686"
           style="stroke:none;fill:#bebebe;fill-opacity:1">
          <g
             transform="translate(82.0049,4)"
             id="g3692"
             style="stroke:none;fill:#bebebe;fill-opacity:1">
            <path
               d="m 0,0 -29.6,63.515 -9.608,123.833 -25.597,0 -17.2,-19.179 0,35.152 19.193,19.179 42.808,0 c 0,0 -7.604,28.754 1.595,48.729 l -6,0 0,16.377 11.2,0 c 0,0 -2.4,4.394 13.209,4.394 15.598,0 12.797,-4.394 12.797,-4.394 l 11.201,0 0,-16.377 -5.599,0 C 27.6,251.254 19.593,222.5 19.593,222.5 l 43.209,0 19.193,-19.179 0,-34.356 -17.601,18.383 -25.592,0 L 29.604,63.515 0,0 z m -4.406,233.28 c -2.799,0 -4.804,-1.996 -4.804,-4.391 0,-2.797 2.005,-4.798 4.804,-4.798 l 8.801,0 c 2.8,0 4.805,2.001 4.805,4.798 0,2.395 -2.005,4.391 -4.805,4.391 l -8.801,0 z M -18.809,146.599 -14.003,73.1 0,42.732 13.993,73.1 18.797,146.599 0,129.421 -18.809,146.599 z m 0.4,35.554 0,-14.382 L 0,151.788 l 18.399,15.983 0,14.382 -36.808,0 z m 14.003,85.881 c -2.799,0 -4.804,-2.002 -4.804,-4.395 0,-2.398 2.005,-4.791 4.804,-4.791 l 8.801,0 c 2.8,0 4.805,2.393 4.805,4.791 0,2.393 -2.005,4.395 -4.805,4.395 l -8.801,0 z m 4.805,-73.103 15.996,0 0,6.788 41.602,0 12.808,-12.779 0,10.39 -12.808,12.779 -49.195,0 c -0.411,-1.592 -2.403,-2.797 -4.407,-2.797 l -8.801,0 c -2.004,0 -3.995,1.205 -4.395,2.797 l -49.208,0 -12.795,-11.982 0,-10.79 13.195,12.382 40.407,0 0,-6.788 17.601,0 z m -16.405,87.485 0,-5.197 7.605,0 c 0.797,1.199 2.401,1.995 3.995,1.995 l 9.2,0 c 1.206,0 2.8,-0.796 3.597,-1.995 l 7.605,0 0,5.197 -32.002,0 z m 11.6,-31.162 c -2.799,0 -4.804,-1.996 -4.804,-4.792 0,-2.393 2.005,-4.395 4.804,-4.395 l 8.801,0 c 2.8,0 4.805,2.002 4.805,4.395 0,2.796 -2.005,4.792 -4.805,4.792 l -8.801,0 z"
               inkscape:connector-curvature="0"
               id="path3694"
               style="fill:#bebebe;fill-opacity:1;fill-rule:nonzero;stroke:none" />
          </g>
        </g>
      </g>
    </g>
  </g>
</svg>
