<?xml version="1.0" encoding="UTF-8" standalone="no"?>
<!-- Created with Inkscape (http://www.inkscape.org/) -->

<svg
   xmlns:dc="http://purl.org/dc/elements/1.1/"
   xmlns:cc="http://creativecommons.org/ns#"
   xmlns:rdf="http://www.w3.org/1999/02/22-rdf-syntax-ns#"
   xmlns:svg="http://www.w3.org/2000/svg"
   xmlns="http://www.w3.org/2000/svg"
   xmlns:sodipodi="http://sodipodi.sourceforge.net/DTD/sodipodi-0.dtd"
   xmlns:inkscape="http://www.inkscape.org/namespaces/inkscape"
   version="1.1"
   width="600"
   height="600"
   id="svg4415"
   inkscape:version="0.91 r13725"
   sodipodi:docname="g.svg">
  <sodipodi:namedview
     pagecolor="#ffffff"
     bordercolor="#666666"
     borderopacity="1"
     objecttolerance="10"
     gridtolerance="10"
     guidetolerance="10"
     inkscape:pageopacity="0"
     inkscape:pageshadow="2"
     inkscape:window-width="1366"
     inkscape:window-height="704"
     id="namedview9"
     showgrid="false"
     inkscape:zoom="0.39333333"
     inkscape:cx="-151.27119"
     inkscape:cy="300"
     inkscape:window-x="0"
     inkscape:window-y="27"
     inkscape:window-maximized="1"
     inkscape:current-layer="svg4415" />
  <defs
     id="defs4417" />
  <metadata
     id="metadata4420">
    <rdf:RDF>
      <cc:Work
         rdf:about="">
        <dc:format>image/svg+xml</dc:format>
        <dc:type
           rdf:resource="http://purl.org/dc/dcmitype/StillImage" />
        <dc:title></dc:title>
      </cc:Work>
    </rdf:RDF>
  </metadata>
  <path
     style="fill:#bebebe;fill-opacity:1;stroke:none"
     id="path133"
     inkscape:connector-curvature="0"
     d="m 562.5722,337.34997 c 0,10.00803 -3.87,18.98404 -11.616,26.98805 -7.734,7.992 -16.62,11.98795 -26.616,11.98795 -15.972,0 -27.738,-7.49998 -35.214,-22.48797 l -35.226,-1.49998 c -7.512,0 -22.254,3.25795 -44.226,9.75001 -23.484,6.49198 -36.98402,11.74197 -40.476,15.73799 -5.496,5.98795 -9.98401,19.99199 -13.488,41.97596 -3.01201,17.98801 -4.48801,31.23004 -4.48801,39.726 0,13.47602 2.11201,23.35801 6.36598,29.60398 4.25404,6.24608 12.99601,11.49603 26.22603,15.73803 13.23,4.24202 21.366,6.62399 24.366,7.12199 1.992,0 5.238,-0.24591 9.75,-0.74998 l 8.988,0 c 6.48,0 13.23,1.02001 20.238,2.99997 9.996,3.00003 14.25,6.99601 12.75,12.00003 -7.008,-0.99599 -19.242,0.50399 -36.726,4.49998 l 20.976,10.48803 c 0,6 -8.496,8.98795 -25.476,8.98795 -4.512,0 -10.626,-0.99595 -18.378,-2.98795 -7.746,-2.01602 -12.87,-3.00003 -15.354,-3.00003 l -9.75,0 c -0.49202,4.99203 -2.00398,12.48004 -4.50002,22.47602 -8.50801,-0.504 -18.47997,-5.50805 -29.97596,-14.98802 -11.50805,-9.48001 -18.73806,-14.23797 -21.72605,-14.23797 -3.01201,0 -7.26598,4.75796 -12.75,14.23797 -5.50798,9.47997 -8.24999,15.98404 -8.24999,19.488 -6.49202,-3.50396 -11.97601,-10.00803 -16.50001,-19.488 -1.992,-6.50399 -4.24199,-12.99598 -6.72602,-19.488 -4.99197,0.50397 -14.24998,11.00401 -27.72597,31.48799 l -3.76202,0 c -0.99599,-1.51195 -4.76998,-11.99999 -11.23798,-31.48799 -15.49198,-4.99197 -29.976,-7.488 -43.47601,-7.488 -6.49201,0 -16.48796,1.50002 -29.97596,4.48804 l -20.97601,-1.48801 c 2.98799,-3.00003 11.73,-8.74204 26.22596,-17.23801 16.97999,-9.99601 29.97604,-14.99999 38.976,-14.99999 1.47603,0 3.46803,0.25799 6,0.75001 2.48402,0.51597 4.50001,0.74994 5.99999,0.74994 3.46804,0 9.10803,-1.872 16.85402,-5.62795 7.74599,-3.73799 12.23402,-7.11601 13.47602,-10.10404 1.26598,-3.02398 1.89599,-10.75796 1.89599,-23.24994 0,-28.47605 -7.50002,-49.71004 -22.50001,-63.70204 -13.00799,-12.49195 -34.47601,-21.48 -64.46399,-26.98801 -7.992,28.47601 -30.48,42.73804 -67.44,42.73804 -12,0 -23.98801,-7.24202 -35.976,-21.73802 -11.97601,-14.496 -17.976,-27.73799 -17.976,-39.726 0,-18.49202 7.722,-33.72604 23.21401,-45.73798 -12.48,-12.97203 -18.72601,-26.21402 -18.72601,-39.70202 0,-12.50402 3.85803,-23.48401 11.616,-32.99998 7.74599,-9.46803 17.86197,-14.97601 30.35399,-16.48804 -0.99599,-15.97199 4.24199,-26.976 15.73799,-32.97599 -5.496,-5.48399 -8.23798,-15.22199 -8.23798,-29.21398 0,-16.488 5.49597,-30.23402 16.488,-41.22602 10.97999,-10.99197 24.72598,-16.49998 41.21401,-16.49998 17.99999,0 32.742,6.26999 44.22599,18.74997 14.49599,-49.46397 45.726,-74.20202 93.678,-74.20202 24.984,0 46.96803,9.99605 65.96401,29.98804 6.99601,7.48801 10.488,11.49597 10.488,11.97601 -6,0 -2.98802,-1.128 9,-3.36605 11.97601,-2.24995 20.71801,-3.37795 26.23801,-3.37795 19.476,0 36.714,7.24199 51.714,21.737988 12.984,12.995982 21.984,29.472002 26.988,49.464032 3.48,0.50396 8.988,1.99197 16.488,4.48794 10.98,5.52005 16.488,14.98801 16.488,28.48806 0,2.50794 -2.016,7.25397 -6,14.23794 31.968,17.98801 47.964,42.97201 47.964,74.95202 0,8.98799 -3.492,21.50399 -10.488,37.48199 12.996,7.482 19.476,18.48601 19.476,32.96999 z m -308.802,32.976 0,-9.73796 c 0,-11.48402 -5.61601,-21.984 -16.85402,-31.47598 -11.25002,-9.49205 -22.61997,-14.23801 -34.10399,-14.23801 -14.00401,0 -26.976,3.24597 -38.976,9.72595 26.47798,-1.48794 56.46599,13.75806 89.93401,45.726 z M 240.29417,277.392 c -7.49998,-8.50801 -13.992,-17.25002 -19.49997,-26.23804 -20.98805,5.49604 -31.47602,11.74201 -31.47602,18.72602 6,-0.47995 14.74201,0.63 26.22599,3.38402 11.48402,2.75399 19.74599,4.128 24.75,4.128 z m 45.726,-23.23797 0,-32.97603 c -11.99999,-1.99201 -19.26597,-3.00003 -21.73799,-3.00003 l 0,11.23801 21.73799,24.73805 z m 97.42801,-20.98805 c -5.99999,-2.49597 -17.25001,-7.50001 -33.726,-14.98801 l 0,64.45201 c 23.47204,-13.49994 34.71002,-29.98801 33.726,-49.464 z m 41.20202,88.446 -16.476,-20.23797 c -9.984,7.00199 -20.112,14.12398 -30.36604,21.366 -10.25397,7.24196 -19.11598,15.37799 -26.59197,24.36 22.48199,-12.01204 46.97401,-20.48402 73.43401,-25.48803 z" />
</svg>
